<svg preserveAspectRatio="none" overflow="visible" style="display: block;" width="83.1301" height="82.3485" viewBox="0 0 83.1301 82.3485" fill="none" xmlns="http://www.w3.org/2000/svg">
<g id="Group 1597881690" filter="url(#filter0_d_0_4)">
<path id="Star 4" d="M37.244 6.83724C39.6039 4.38759 43.5262 4.38759 45.8861 6.83724L52.8631 14.0795C53.8595 15.1138 55.1938 15.7564 56.6237 15.8906L66.636 16.8299C70.0226 17.1476 72.4681 20.2142 72.0243 23.5866L70.7121 33.5569C70.5247 34.9808 70.8543 36.4246 71.6409 37.6262L77.1491 46.0398C79.0122 48.8857 78.1394 52.7096 75.2261 54.4653L66.6128 59.6558C65.3827 60.397 64.4594 61.5549 64.0104 62.9191L60.8666 72.4714C59.8033 75.7024 56.2695 77.4042 53.0804 76.2211L43.652 72.7232C42.3055 72.2236 40.8245 72.2236 39.4781 72.7232L30.0497 76.2211C26.8606 77.4042 23.3268 75.7024 22.2634 72.4714L19.1197 62.9191C18.6707 61.5549 17.7473 60.397 16.5173 59.6558L7.90401 54.4653C4.99064 52.7096 4.11786 48.8857 5.98097 46.0398L11.4892 37.6262C12.2758 36.4246 12.6053 34.9808 12.418 33.5569L11.1058 23.5866C10.6619 20.2142 13.1074 17.1476 16.494 16.8299L26.5064 15.8906C27.9363 15.7564 29.2706 15.1138 30.267 14.0795L37.244 6.83724Z" fill="#FFCE53"/>
<circle id="Ellipse 585" cx="41.5652" cy="42.3499" r="24.4433" fill="#FFE865"/>
<path id="Ellipse 588" d="M41.5652 17.9065C45.724 17.9065 49.814 18.9676 53.4483 20.9894C57.0826 23.0112 60.1409 25.9269 62.3339 29.4605C64.5269 32.9941 65.7821 37.0288 65.9807 41.1829C66.1792 45.337 65.3146 49.473 63.4686 53.1997L41.5652 42.3499L41.5652 17.9065Z" fill="#FFF3AD"/>
</g>
<defs>
<filter id="filter0_d_0_4" x="0" y="0" width="83.1301" height="81.5976" filterUnits="userSpaceOnUse" color-interpolation-filters="sRGB">
<feFlood flood-opacity="0" result="BackgroundImageFix"/>
<feColorMatrix in="SourceAlpha" type="matrix" values="0 0 0 0 0 0 0 0 0 0 0 0 0 0 0 0 0 0 127 0" result="hardAlpha"/>
<feOffset/>
<feGaussianBlur stdDeviation="2.5"/>
<feComposite in2="hardAlpha" operator="out"/>
<feColorMatrix type="matrix" values="0 0 0 0 0 0 0 0 0 0 0 0 0 0 0 0 0 0 0.2 0"/>
<feBlend mode="normal" in2="BackgroundImageFix" result="effect1_dropShadow_0_4"/>
<feBlend mode="normal" in="SourceGraphic" in2="effect1_dropShadow_0_4" result="shape"/>
</filter>
</defs>
</svg>
