<svg preserveAspectRatio="none" overflow="visible" style="display: block;" width="358.702" height="267" viewBox="0 0 358.702 267" fill="none" xmlns="http://www.w3.org/2000/svg">
<g id="Group 1597881217">
<path id="Vector 1328" d="M137.841 60.4349C131.122 65.6817 127.155 70.8857 127.2 69.1844C127.486 58.4677 127.099 49.2111 116.038 46.2049C89.1076 38.8857 52.9161 89.4891 40.7603 112.676C30.0032 133.194 0.180498 190.174 28.5875 209.585L301.895 217.583C313.892 208.296 346.254 169.211 336.105 145.436C325.74 121.155 259.538 159.681 280.061 147.06C280.86 146.569 319.695 117.69 332.279 96.7993C338.032 87.2498 347.329 66.0255 332.279 48.8031C317.216 31.5654 269.794 42.8908 240.465 65.4418C228.14 74.9185 257.794 45.0908 249.775 30.6015C231.513 -2.39898 154.848 47.1538 137.841 60.4349Z" fill="#5EA966"/>
<g id="Group 1597881182" filter="url(#filter0_g_0_50)">
<path id="Vector 1329" d="M129.172 173.234L141.66 161.235" stroke="white" stroke-opacity="0.3"/>
<path id="Vector 1330" d="M123.199 148.636L135.687 136.637" stroke="white" stroke-opacity="0.3"/>
<path id="Vector 1331" d="M153.604 148.636L166.092 136.637" stroke="white" stroke-opacity="0.3"/>
<path id="Vector 1345" d="M207.9 107.839L220.388 95.8398" stroke="white" stroke-opacity="0.3"/>
<path id="Vector 1346" d="M214.416 81.4409L226.904 69.4419" stroke="white" stroke-opacity="0.3"/>
<path id="Vector 1362" d="M210.954 39.6843L223.442 27.6853" stroke="white" stroke-opacity="0.3"/>
<path id="Vector 1363" d="M89.5352 89.8403L102.023 77.8412" stroke="white" stroke-opacity="0.3"/>
<path id="Vector 1364" d="M84.1064 131.837L96.5944 119.838" stroke="white" stroke-opacity="0.3"/>
<path id="Vector 1365" d="M94.9658 193.032L107.454 181.033" stroke="white" stroke-opacity="0.3"/>
<path id="Vector 1366" d="M75.4189 113.838L87.9069 101.839" stroke="white" stroke-opacity="0.3"/>
<path id="Vector 1370" d="M65.582 168.954L78.07 156.955" stroke="white" stroke-opacity="0.3"/>
<path id="Vector 1371" d="M78.6982 78.0812L91.1862 66.0821" stroke="white" stroke-opacity="0.3"/>
<path id="Vector 1372" d="M101.651 67.842L114.139 55.843" stroke="white" stroke-opacity="0.3"/>
<path id="Vector 1347" d="M251.336 93.44L263.824 81.4409" stroke="white" stroke-opacity="0.3"/>
<path id="Vector 1348" d="M285 87.4405L297.488 75.4414" stroke="white" stroke-opacity="0.3"/>
<path id="Vector 1356" d="M281.742 75.4414L294.23 63.4424" stroke="white" stroke-opacity="0.3"/>
<path id="Vector 1357" d="M280.656 177.433L293.144 165.434" stroke="white" stroke-opacity="0.3"/>
<path id="Vector 1367" d="M302.768 166.394L315.256 154.395" stroke="white" stroke-opacity="0.3"/>
<path id="Vector 1368" d="M285.279 202.231L297.767 190.232" stroke="white" stroke-opacity="0.3"/>
<path id="Vector 1369" d="M120.233 197.112L132.721 185.113" stroke="white" stroke-opacity="0.3"/>
<path id="Vector 1358" d="M217.673 189.432L230.161 177.433" stroke="white" stroke-opacity="0.3"/>
<path id="Vector 1359" d="M262.196 196.632L274.684 184.633" stroke="white" stroke-opacity="0.3"/>
<path id="Vector 1360" d="M307.804 178.633L320.292 166.634" stroke="white" stroke-opacity="0.3"/>
<path id="Vector 1349" d="M267.626 119.838L280.114 107.839" stroke="white" stroke-opacity="0.3"/>
<path id="Vector 1350" d="M248.078 123.438L260.566 111.439" stroke="white" stroke-opacity="0.3"/>
<path id="Vector 1351" d="M248.078 148.636L260.566 136.637" stroke="white" stroke-opacity="0.3"/>
<path id="Vector 1352" d="M287.172 124.638L299.66 112.638" stroke="white" stroke-opacity="0.3"/>
<path id="Vector 1353" d="M313.233 100.639L325.721 88.6404" stroke="white" stroke-opacity="0.3"/>
<path id="Vector 1354" d="M311.062 81.4409L323.549 69.4419" stroke="white" stroke-opacity="0.3"/>
<path id="Vector 1355" d="M249.165 177.433L261.653 165.434" stroke="white" stroke-opacity="0.3"/>
<path id="Vector 1332" d="M177.495 148.636L195.956 130.637" stroke="white" stroke-opacity="0.3"/>
<path id="Vector 1333" d="M177.495 111.439L195.956 93.44" stroke="white" stroke-opacity="0.3"/>
<path id="Vector 1334" d="M141.66 117.438L160.121 99.4395" stroke="white" stroke-opacity="0.3"/>
<path id="Vector 1335" d="M101.48 125.837L119.941 107.839" stroke="white" stroke-opacity="0.3"/>
<path id="Vector 1336" d="M101.48 99.4395L119.941 81.4409" stroke="white" stroke-opacity="0.3"/>
<path id="Vector 1337" d="M89.5352 166.634L107.996 148.636" stroke="white" stroke-opacity="0.3"/>
<path id="Vector 1338" d="M150.347 190.632L168.807 172.634" stroke="white" stroke-opacity="0.3"/>
<path id="Vector 1339" d="M189.439 187.033L207.9 169.034" stroke="white" stroke-opacity="0.3"/>
<path id="Vector 1340" d="M214.416 158.235L232.876 140.236" stroke="white" stroke-opacity="0.3"/>
<path id="Vector 1341" d="M217.673 125.837L236.133 107.839" stroke="white" stroke-opacity="0.3"/>
<path id="Vector 1343" d="M206.582 63.5223L220.791 50.7234" stroke="white" stroke-opacity="0.3"/>
<path id="Vector 1344" d="M168.808 81.4409L187.268 63.4424" stroke="white" stroke-opacity="0.3"/>
<path id="Vector 1361" d="M147.089 81.4409L165.549 63.4424" stroke="white" stroke-opacity="0.3"/>
</g>
</g>
<defs>
<filter id="filter0_g_0_50" x="60.2356" y="22.3247" width="270.832" height="185.267" filterUnits="userSpaceOnUse" color-interpolation-filters="sRGB">
<feFlood flood-opacity="0" result="BackgroundImageFix"/>
<feBlend mode="normal" in="SourceGraphic" in2="BackgroundImageFix" result="shape"/>
<feTurbulence type="fractalNoise" baseFrequency="0.019999999552965164 0.019999999552965164" numOctaves="3" seed="8352" />
<feDisplacementMap in="shape" scale="10" xChannelSelector="R" yChannelSelector="G" result="displacedImage" width="100%" height="100%" />
<feMerge result="effect1_texture_0_50">
<feMergeNode in="displacedImage"/>
</feMerge>
</filter>
</defs>
</svg>
