<svg preserveAspectRatio="none" overflow="visible" style="display: block;" width="33.354" height="25.5635" viewBox="0 0 33.354 25.5635" fill="none" xmlns="http://www.w3.org/2000/svg">
<g id="Group 1597881834">
<rect id="Rectangle 161127537" x="1.45015" y="1.34485" width="30.4537" height="22.8726" fill="#FFF6C3"/>
<g id="Polygon 77">
<path d="M15.427 10.1825C16.1221 9.50488 17.2306 9.50489 17.9256 10.1825L32.3351 24.2317H1.01756L15.427 10.1825Z" fill="#D9D9D9"/>
<path d="M15.427 10.1825C16.1221 9.50488 17.2306 9.50489 17.9256 10.1825L32.3351 24.2317H1.01756L15.427 10.1825Z" fill="#FFE865"/>
<path d="M15.3734 10.2348C16.0848 9.54126 17.2679 9.54126 17.9792 10.2348L32.3351 24.2317H1.01756L15.3734 10.2348Z" fill="#D9D9D9"/>
<path d="M15.3734 10.2348C16.0848 9.54126 17.2679 9.54126 17.9792 10.2348L32.3351 24.2317H1.01756L15.3734 10.2348Z" fill="#FFE865"/>
</g>
<path id="Rectangle 161127536" d="M2.68457 0.894531H30.6699C31.6582 0.89466 32.459 1.6963 32.459 2.68457V22.8789C32.459 23.8672 31.6582 24.6688 30.6699 24.6689H2.68457C1.69622 24.6689 0.894531 23.8673 0.894531 22.8789V2.68457C0.894531 1.69622 1.69622 0.894531 2.68457 0.894531Z" stroke="#FFB52A" stroke-width="1.78957"/>
<g id="Polygon 76">
<path d="M15.4631 15.4791C16.1484 16.1112 17.2043 16.1112 17.8896 15.4791L33.2299 1.33092H0.122771L15.4631 15.4791Z" fill="#D9D9D9"/>
<path d="M15.4631 15.4791C16.1484 16.1112 17.2043 16.1112 17.8896 15.4791L33.2299 1.33092H0.122771L15.4631 15.4791Z" fill="#FFB52A"/>
<path d="M15.299 15.3278C16.051 16.0213 17.3017 16.0213 18.0537 15.3278L33.2299 1.33092H0.122771L15.299 15.3278Z" fill="#D9D9D9"/>
<path d="M15.299 15.3278C16.051 16.0213 17.3017 16.0213 18.0537 15.3278L33.2299 1.33092H0.122771L15.299 15.3278Z" fill="#FFB52A"/>
</g>
</g>
</svg>
