<svg preserveAspectRatio="none" overflow="visible" style="display: block;" width="280.543" height="219.085" viewBox="0 0 280.543 219.085" fill="none" xmlns="http://www.w3.org/2000/svg">
<g id="Subtract" filter="url(#filter0_d_0_5)">
<path d="M270.865 9C274.001 9.00023 276.543 11.5421 276.543 14.6777V213.407C276.543 216.543 274.001 219.085 270.865 219.085H9.67773C6.54204 219.085 4.00009 216.543 4 213.407V14.6777C4.00013 11.5421 6.54207 9.00013 9.67773 9H270.865ZM9.7793 9.00098C4.63483 9.00098 2.14213 15.295 5.8916 18.8174L136.606 141.613C138.795 143.669 142.205 143.665 144.39 141.605L274.6 18.8096C278.338 15.2837 275.843 9.00098 270.704 9.00098H9.7793Z" fill="white"/>
</g>
<defs>
<filter id="filter0_d_0_5" x="0" y="0" width="280.543" height="219.085" filterUnits="userSpaceOnUse" color-interpolation-filters="sRGB">
<feFlood flood-opacity="0" result="BackgroundImageFix"/>
<feColorMatrix in="SourceAlpha" type="matrix" values="0 0 0 0 0 0 0 0 0 0 0 0 0 0 0 0 0 0 127 0" result="hardAlpha"/>
<feOffset dy="-5"/>
<feGaussianBlur stdDeviation="2"/>
<feComposite in2="hardAlpha" operator="out"/>
<feColorMatrix type="matrix" values="0 0 0 0 0 0 0 0 0 0 0 0 0 0 0 0 0 0 0.1 0"/>
<feBlend mode="normal" in2="BackgroundImageFix" result="effect1_dropShadow_0_5"/>
<feBlend mode="normal" in="SourceGraphic" in2="effect1_dropShadow_0_5" result="shape"/>
</filter>
</defs>
</svg>
